<svg xmlns="http://www.w3.org/2000/svg" xmlns:xlink="http://www.w3.org/1999/xlink" width="40" height="40" viewBox="0 0 40 40">
  <defs>
    <linearGradient id="fixed-a" x1="50%" x2="50%" y1="0%" y2="96.383%">
      <stop offset="0%" stop-color="#00D0E2"/>
      <stop offset="100%" stop-color="#49ABB4"/>
    </linearGradient>
    <linearGradient id="fixed-d" x1="50%" x2="50%" y1="0%" y2="100%">
      <stop offset="0%" stop-color="#F8FDFF"/>
      <stop offset="100%" stop-color="#D9F3FF"/>
    </linearGradient>
    <path id="fixed-c" d="M20.9805225,11.5515439 L26.9805225,14.9265439 C27.6102764,15.2807805 28,15.9471483 28,16.669695 L28,23.330305 C28,24.0528517 27.6102764,24.7192195 26.9805225,25.0734561 L20.9805225,28.4484561 C20.3716954,28.7909213 19.6283046,28.7909213 19.0194775,28.4484561 L13.0194775,25.0734561 C12.3897236,24.7192195 12,24.0528517 12,23.330305 L12,16.669695 C12,15.9471483 12.3897236,15.2807805 13.0194775,14.9265439 L19.0194775,11.5515439 C19.6283046,11.2090787 20.3716954,11.2090787 20.9805225,11.5515439 Z M20,23 C21.6568542,23 23,21.6568542 23,20 C23,18.3431458 21.6568542,17 20,17 C18.3431458,17 17,18.3431458 17,20 C17,21.6568542 18.3431458,23 20,23 Z"/>
    <filter id="fixed-b" width="125%" height="118.9%" x="-12.5%" y="-3.9%" filterUnits="objectBoundingBox">
      <feOffset dy="1" in="SourceAlpha" result="shadowOffsetOuter1"/>
      <feGaussianBlur in="shadowOffsetOuter1" result="shadowBlurOuter1" stdDeviation=".5"/>
      <feColorMatrix in="shadowBlurOuter1" values="0 0 0 0 0   0 0 0 0 0   0 0 0 0 0  0 0 0 0.16 0"/>
    </filter>
  </defs>
  <g fill="none" fill-rule="evenodd">
    <path fill="url(#fixed-a)" fill-rule="nonzero" stroke="#FFF" stroke-opacity=".485" stroke-width="3" d="M19.877301,1.5 C15.9862845,1.5 12.6645207,2.25687526 9.91578696,3.72691413 C7.24385633,5.15587827 5.15587827,7.24385633 3.72691413,9.91578696 C2.25687526,12.6645207 1.5,15.9862845 1.5,19.877301 L1.5,20.122699 C1.5,24.0137155 2.25687526,27.3354793 3.72691413,30.084213 C5.15587827,32.7561437 7.24385633,34.8441217 9.91578696,36.2730859 C12.6645207,37.7431247 15.9862845,38.5 19.877301,38.5 L20.122699,38.5 C24.0137155,38.5 27.3354793,37.7431247 30.084213,36.2730859 C32.7561437,34.8441217 34.8441217,32.7561437 36.2730859,30.084213 C37.7431247,27.3354793 38.5,24.0137155 38.5,20.122699 L38.5,19.877301 C38.5,15.9862845 37.7431247,12.6645207 36.2730859,9.91578696 C34.8441217,7.24385633 32.7561437,5.15587827 30.084213,3.72691413 C27.3354793,2.25687526 24.0137155,1.5 20.122699,1.5 L19.877301,1.5 Z"/>
    <g fill-rule="nonzero">
      <use fill="#000" filter="url(#fixed-b)" xlink:href="#fixed-c"/>
      <use fill="url(#fixed-d)" xlink:href="#fixed-c"/>
    </g>
  </g>
</svg>
