<svg xmlns="http://www.w3.org/2000/svg" xmlns:xlink="http://www.w3.org/1999/xlink" width="40" height="40" viewBox="0 0 40 40">
  <defs>
    <linearGradient id="improved-a" x1="50%" x2="50%" y1="1.012%" y2="100%">
      <stop offset="0%" stop-color="#A574F3"/>
      <stop offset="96.676%" stop-color="#724AD7"/>
    </linearGradient>
    <linearGradient id="improved-d" x1="50%" x2="50%" y1="0%" y2="100%">
      <stop offset="0%" stop-color="#FFF"/>
      <stop offset="100%" stop-color="#DCF4FF"/>
    </linearGradient>
    <path id="improved-c" d="M22,20 L22,27 C22,27.5522847 21.5522847,28 21,28 L19,28 C18.4477153,28 18,27.5522847 18,27 L18,20 L13.8764272,20 C13.3241425,20 12.8764272,19.5522847 12.8764272,19 C12.8764272,18.7701009 12.9556415,18.5472227 13.1007328,18.3688913 L18.3583143,11.9068088 C19.0554177,11.0500004 20.3151121,10.9205339 21.1719205,11.6176374 C21.2779384,11.703894 21.3748353,11.8007909 21.4610919,11.9068088 L26.7186734,18.3688913 C27.0672251,18.7972955 27.0024919,19.4271427 26.5740877,19.7756944 C26.3957563,19.9207857 26.1728781,20 25.942979,20 L22,20 Z"/>
    <filter id="improved-b" width="128.4%" height="123.8%" x="-14.2%" y="-5.9%" filterUnits="objectBoundingBox">
      <feOffset dy="1" in="SourceAlpha" result="shadowOffsetOuter1"/>
      <feGaussianBlur in="shadowOffsetOuter1" result="shadowBlurOuter1" stdDeviation=".5"/>
      <feColorMatrix in="shadowBlurOuter1" values="0 0 0 0 0   0 0 0 0 0   0 0 0 0 0  0 0 0 0.158344656 0"/>
    </filter>
  </defs>
  <g fill="none" fill-rule="evenodd">
    <path fill="url(#improved-a)" fill-rule="nonzero" stroke="#FFF" stroke-opacity=".463" stroke-width="3" d="M19.877301,1.5 C15.9862845,1.5 12.6645207,2.25687526 9.91578696,3.72691413 C7.24385633,5.15587827 5.15587827,7.24385633 3.72691413,9.91578696 C2.25687526,12.6645207 1.5,15.9862845 1.5,19.877301 L1.5,20.122699 C1.5,24.0137155 2.25687526,27.3354793 3.72691413,30.084213 C5.15587827,32.7561437 7.24385633,34.8441217 9.91578696,36.2730859 C12.6645207,37.7431247 15.9862845,38.5 19.877301,38.5 L20.122699,38.5 C24.0137155,38.5 27.3354793,37.7431247 30.084213,36.2730859 C32.7561437,34.8441217 34.8441217,32.7561437 36.2730859,30.084213 C37.7431247,27.3354793 38.5,24.0137155 38.5,20.122699 L38.5,19.877301 C38.5,15.9862845 37.7431247,12.6645207 36.2730859,9.91578696 C34.8441217,7.24385633 32.7561437,5.15587827 30.084213,3.72691413 C27.3354793,2.25687526 24.0137155,1.5 20.122699,1.5 L19.877301,1.5 Z"/>
    <g fill-rule="nonzero">
      <use fill="#000" filter="url(#improved-b)" xlink:href="#improved-c"/>
      <use fill="url(#improved-d)" xlink:href="#improved-c"/>
    </g>
  </g>
</svg>
